<svg width="30.000000" height="30.000000" viewBox="0 0 30 30" fill="none" xmlns="http://www.w3.org/2000/svg" xmlns:xlink="http://www.w3.org/1999/xlink">
	<desc>
			Created with Pixso.
	</desc>
	<defs>
		<clipPath id="clip2_68">
			<rect id="Frame" width="30.000000" height="30.000000" fill="white" fill-opacity="0"/>
		</clipPath>
	</defs>
	<rect id="Frame" width="30.000000" height="30.000000" fill="#FFFFFF" fill-opacity="0"/>
	<g clip-path="url(#clip2_68)">
		<path id="Vector" d="M21.23 26.76L20.81 28.47C19.55 28.97 18.54 29.35 17.8 29.6C17.05 29.87 16.18 30 15.19 30C13.66 30 12.48 29.62 11.64 28.88C10.79 28.14 10.37 27.2 10.37 26.05C10.37 25.61 10.4 25.15 10.46 24.69C10.53 24.23 10.63 23.7 10.77 23.12L12.34 17.56C12.48 17.02 12.6 16.52 12.69 16.04C12.79 15.57 12.84 15.13 12.84 14.74C12.84 14.03 12.69 13.53 12.4 13.25C12.1 12.97 11.55 12.83 10.72 12.83C10.31 12.83 9.89 12.9 9.47 13.02C9.04 13.15 8.67 13.27 8.37 13.38L8.79 11.67C9.82 11.25 10.8 10.89 11.74 10.59C12.68 10.29 13.57 10.15 14.41 10.15C15.93 10.15 17.09 10.51 17.91 11.24C18.73 11.97 19.14 12.92 19.14 14.09C19.14 14.33 19.11 14.76 19.06 15.37C19 15.98 18.89 16.53 18.74 17.04L17.18 22.58C17.05 23.03 16.93 23.54 16.83 24.11C16.73 24.68 16.68 25.11 16.68 25.4C16.68 26.14 16.84 26.64 17.17 26.91C17.5 27.18 18.07 27.31 18.88 27.31C19.27 27.31 19.7 27.24 20.18 27.11C20.66 26.98 21.01 26.86 21.23 26.76ZM21.62 3.5C21.62 4.46 21.26 5.29 20.53 5.97C19.8 6.65 18.92 6.99 17.89 6.99C16.86 6.99 15.98 6.65 15.24 5.97C14.51 5.29 14.14 4.46 14.14 3.5C14.14 2.54 14.51 1.71 15.24 1.02C15.98 0.34 16.86 0 17.89 0C18.92 0 19.8 0.34 20.53 1.02C21.26 1.71 21.62 2.54 21.62 3.5Z" fill="#FFFFFF" fill-opacity="1.000000" fill-rule="nonzero"/>
	</g>
</svg>
