<svg width="30.000000" height="30.000000" viewBox="0 0 30 30" fill="none" xmlns="http://www.w3.org/2000/svg" xmlns:xlink="http://www.w3.org/1999/xlink">
	<desc>
			Created with Pixso.
	</desc>
	<defs>
		<clipPath id="clip2_61">
			<rect id="Frame" width="30.000000" height="30.000000" fill="white" fill-opacity="0"/>
		</clipPath>
	</defs>
	<rect id="Frame" width="30.000000" height="30.000000" fill="#FFFFFF" fill-opacity="0"/>
	<g clip-path="url(#clip2_61)">
		<path id="Vector" d="M15.31 2.49L13.93 2.49C13.52 1.06 12.2 -7.63e-6 10.62 -7.63e-6C9.05 -7.63e-6 7.72 1.06 7.31 2.49L5.93 2.49C5.42 2.49 5 2.92 5 3.43L5 5.31C5 6.51 5.98 7.49 7.18 7.49L14.06 7.49C15.26 7.49 16.25 6.51 16.25 5.31L16.25 3.43C16.25 2.92 15.82 2.49 15.31 2.49Z" fill="#FFFFFF" fill-opacity="1.000000" fill-rule="nonzero"/>
		<path id="Vector" d="M17.81 3.75L17.5 3.75L17.5 5.31C17.5 7.21 15.96 8.75 14.06 8.75L7.18 8.75C5.28 8.75 3.75 7.21 3.75 5.31L3.75 3.75L3.43 3.75C1.53 3.75 0 5.28 0 7.18L0 22.81C0 24.71 1.53 26.25 3.43 26.25L12.66 26.25L12.93 24.71C13.06 24.01 13.38 23.38 13.88 22.87L14.88 21.87L4.68 21.87C4.17 21.87 3.75 21.45 3.75 20.93C3.75 20.42 4.17 20 4.68 20L16.56 20C16.62 20 16.67 20 16.73 20.02L16.75 20.02L21.25 15.52L21.25 7.18C21.25 5.28 19.71 3.75 17.81 3.75ZM16.56 17.81L4.68 17.81C4.17 17.81 3.75 17.38 3.75 16.87C3.75 16.36 4.17 15.93 4.68 15.93L16.56 15.93C17.07 15.93 17.5 16.36 17.5 16.87C17.5 17.38 17.07 17.81 16.56 17.81ZM16.56 13.75L4.68 13.75C4.17 13.75 3.75 13.32 3.75 12.81C3.75 12.3 4.17 11.87 4.68 11.87L16.56 11.87C17.07 11.87 17.5 12.3 17.5 12.81C17.5 13.32 17.07 13.75 16.56 13.75ZM15.65 30C15.52 30 15.38 29.97 15.26 29.91C15.13 29.85 15.02 29.77 14.93 29.66C14.85 29.56 14.78 29.43 14.75 29.3C14.71 29.17 14.71 29.03 14.73 28.89L15.39 25.14C15.43 24.95 15.52 24.77 15.65 24.64L24.94 15.36C26.08 14.22 27.2 14.52 27.81 15.14L29.35 16.68C29.56 16.89 29.72 17.13 29.83 17.39C29.94 17.66 29.99 17.94 29.99 18.23C29.99 18.52 29.94 18.8 29.83 19.07C29.72 19.33 29.56 19.57 29.35 19.78L20.07 29.06C19.94 29.19 19.76 29.29 19.57 29.32L15.82 29.98C15.76 29.99 15.71 30 15.65 30Z" fill="#FFFFFF" fill-opacity="1.000000" fill-rule="nonzero"/>
	</g>
</svg>
