<svg width="70" height="70" viewBox="0 0 70 70" fill="none" xmlns="http://www.w3.org/2000/svg">
<rect x="10" y="10" width="50" height="50" rx="5" fill="#0099E2"/>
<g clip-path="url(#clip0_1_10)">
<path d="M55.7923 56.224C54.6083 57.632 53.1843 58.688 51.5203 59.392C49.8563 60.128 48.0163 60.496 46.0003 60.496C43.9843 60.496 42.1763 60.24 40.5763 59.728C38.9763 59.248 37.3763 58.416 35.7763 57.232C34.1763 56.08 32.3523 54.432 30.3043 52.288C27.4883 51.712 25.0083 50.624 22.8643 49.024C20.7203 47.392 19.0403 45.392 17.8242 43.024C16.6403 40.656 16.0483 38.048 16.0483 35.2C16.0483 31.84 16.8643 28.832 18.4963 26.176C20.1283 23.488 22.3843 21.392 25.2643 19.888C28.1443 18.384 31.3923 17.632 35.0083 17.632C38.6243 17.632 41.8723 18.384 44.7523 19.888C47.6323 21.392 49.8883 23.488 51.5203 26.176C53.1523 28.832 53.9683 31.84 53.9683 35.2C53.9683 38.88 52.9923 42.144 51.0403 44.992C49.0883 47.808 46.4483 49.888 43.1203 51.232C43.6003 51.744 44.0803 52.096 44.5603 52.288C45.0723 52.512 45.6323 52.624 46.2403 52.624C47.9043 52.624 49.4563 51.904 50.8963 50.464L55.7923 56.224ZM35.0083 26.8C33.6003 26.8 32.3203 27.152 31.1683 27.856C30.0483 28.528 29.1523 29.504 28.4803 30.784C27.8083 32.032 27.4723 33.504 27.4723 35.2C27.4723 36.896 27.8083 38.384 28.4803 39.664C29.1523 40.912 30.0483 41.888 31.1683 42.592C32.3203 43.264 33.6003 43.6 35.0083 43.6C36.4163 43.6 37.6803 43.264 38.8003 42.592C39.9523 41.888 40.8643 40.912 41.5363 39.664C42.2083 38.384 42.5443 36.896 42.5443 35.2C42.5443 33.504 42.2083 32.032 41.5363 30.784C40.8643 29.504 39.9523 28.528 38.8003 27.856C37.6803 27.152 36.4163 26.8 35.0083 26.8Z" fill="#006196"/>
<path d="M34.8376 52L34.7416 36.688L27.4456 48.976H22.4536L15.1576 37.216V52H4.83756V18.4H14.1496L25.0936 36.304L35.7496 18.4H45.0616L45.1576 52H34.8376Z" fill="#2D3849"/>
<path d="M43.6187 16.944V22.704H57.6347V31.248H43.6187V42H32.2907V8.4H59.6027V16.944H43.6187Z" fill="#685AAF"/>
<path d="M22.9235 28.4H34.2515V53.216H49.4195V62H22.9235V28.4Z" fill="#63B5A3"/>
</g>
<defs>
<clipPath id="clip0_1_10">
<rect width="70" height="70" fill="white"/>
</clipPath>
</defs>
</svg>
